<svg version="1.1" xmlns="http://www.w3.org/2000/svg" xmlns:xlink="http://www.w3.org/1999/xlink">
    <symbol id="logo" viewBox="0 0 130 72">
        <path d="M12 16V14H14V10H16V8H18V6H24V4H32V2H34V4H36V6H42V8H44V12H46V16H44V32H42V34H44V38H46V40H48V52H46V54H44V58H42V70H44V72H36V62H24V64H22V66H20V72H14V64H16V60H0V36H14V26H12V20H14V16H12Z" fill="#33343D"/>
        <path d="M12 12H10V14H12V12Z" fill="#33343D"/>
        <path d="M14 8H12V10H14V8Z" fill="#33343D"/>
        <path d="M22 0H18V2H22V0Z" fill="#33343D"/>
        <path d="M24 2H22V4H24V2Z" fill="#33343D"/>
        <path d="M36 0H34V2H36V0Z" fill="#33343D"/>
        <path d="M44 4H42V6H44V4Z" fill="#33343D"/>
        <path d="M48 10H46V12H48V10Z" fill="#33343D"/>
        <path d="M48 16H46V18H48V16Z" fill="#33343D"/>
        <path d="M28 10V6H24V8H18V10H16V16H18V12H24V14H26V12H30V10H28Z" fill="#4A3C3B"/>
        <path d="M42 12V8H36V6H28V10H30V14H32V12H34V14H38V12H40V14H44V12H42Z" fill="#644F4A"/>
        <path d="M40 16V14H38V16H34V14H32V16H30V14H26V16H24V14H20V16H18V18H16V20H20V18H42V16H40Z" fill="#E2B59C"/>
        <path d="M18 22H14V26H16V32H20V30H18V22Z" fill="#E2B59C"/>
        <path d="M42 20V18H20V20H22V22H24V20H28V22H30V20H32V22H34V20H38V22H40V20H42Z" fill="#F8D0B6"/>
        <path d="M40 26H38V28H34V26H32V22H30V26H28V28H24V26H22V22H18V30H20V32H42V22H40V26Z" fill="#F8D0B6"/>
        <path d="M28 22H24V24H28V22Z" fill="#72C4ED"/>
        <path d="M38 22H34V24H38V22Z" fill="#72C4ED"/>
        <path d="M28 24H24V26H28V24Z" fill="#96D2EA"/>
        <path d="M38 24H34V26H38V24Z" fill="#96D2EA"/>
        <path d="M46 46H44V52H46V46Z" fill="#E25473"/>
        <path d="M46 40H44V46H46V40Z" fill="#D33D57"/>
        <path d="M16 34V36H24V52H30V50H26V48H28V46H26V44H30V42H26V36H42V34H16Z" fill="#D33D57"/>
        <path d="M30 38H28V40H30V38Z" fill="#D33D57"/>
        <path d="M38 36V40H40V42H34V40H36V38H34V36H32V42H30V48H32V50H30V52H42V36H38ZM40 50H34V44H40V50Z" fill="#E25473"/>
        <path d="M38 46H36V48H38V46Z" fill="#E25473"/>
        <path d="M10 38H6V42H10V38Z" fill="#72C4ED"/>
        <path d="M16 42V44H10V42H6V46H18V42H16Z" fill="#96D2EA"/>
        <path d="M18 38H16V42H18V38Z" fill="#72C4ED"/>
        <path d="M4 38H2V42H4V38Z" fill="#2DAD7C"/>
        <path d="M22 38H20V42H22V38Z" fill="#2DAD7C"/>
        <path d="M20 42V48H4V42H2V58H20V56H22V42H20ZM4 56V54H18V56H4ZM20 52H4V50H20V52Z" fill="#3CC68D"/>
        <path d="M42 54H24V56H42V54Z" fill="#4B7EE2"/>
        <path d="M22 56V58H20V60H18V64H22V62H24V60H36V62H38V64H40V58H42V56H22Z" fill="#6297ED"/>
        <path d="M40 66H38V70H40V66Z" fill="#414351"/>
        <path d="M18 64H16V70H18V64Z" fill="#414351"/>
        <path d="M104 52V50H102V48H90V50H88V64H90V66H106V52H104ZM102 54V62H98V58H94V62H90V52H92V50H100V52H102V54Z" fill="#33343D"/>
        <path d="M84 50V48H68V64H70V66H76V62H78V64H80V66H86V50H84ZM82 52V62H80V56H78V58H74V56H72V62H70V50H74V54H78V50H82V52Z" fill="#33343D"/>
        <path d="M124 50V48H118V50H116V48H108V64H110V66H116V64H118V66H126V50H124ZM122 58V62H118V60H116V58H114V56H112V62H110V50H114V52H116V54H118V56H120V50H122V58Z" fill="#33343D"/>
        <path d="M98 52H94V56H98V52Z" fill="#33343D"/>
        <path d="M128 12V10H66V22H68V24H74V30H66V42H68V44H100V32H98V30H92V24H104V42H106V44H122V24H130V12H128ZM96 14V20H88V32H96V40H68V32H76V20H68V12H96V14ZM126 14V20H118V40H106V20H98V12H126V14Z" fill="#33343D"/>
    </symbol>
    
    <symbol id="itman" viewBox="0 0 66 54">
        <path d="M36 22H34H32H30H28H26H24H22H20V24V26V28H22H24H26H28H30H32H34H36V30V32V34V36V38V40H38V38V36V34V32V30V28V26V24V22H36Z" fill="#D43D57"/>
        <path d="M34 28H32H30H28H26H24H22H20V30V32V34V36V38V40H22H24H26H28H30H32H34H36V38V36V34V32V30V28H34Z" fill="#E25674"/>
        <path d="M16 22H14V24H12H10H8V26H10H12H14H16H18V24V22H16Z" fill="#5377BA"/>
        <path d="M4 34H2V36H4H6V34H4Z" fill="#414351"/>
        <path d="M16 26H14H12H10V28H12V30V32H10V34H8V36H10H12H14V38H16V40H18V38V36V34V32V30V28V26H16Z" fill="#6A91CB"/>
        <path d="M4 24H2V26H4H6V24H4Z" fill="#414351"/>
        <path d="M62 26H58V28H62V26Z" fill="#E25674"/>
        <path d="M56 26V28H58V26H56Z" fill="#D43D57"/>
        <path d="M54 26V28H56V26H54Z" fill="#D43D57"/>
        <path d="M52 26V28H54V26H52Z" fill="#D43D57"/>
        <path d="M40 10V6H36V8H30V10H28V16H30V12H36V14H38V12H42V10H40Z" fill="#4B3D3B"/>
        <path d="M54 12V8H48V6H40V10H42V14H44V12H46V14H50V12H52V14H56V12H54Z" fill="#66514C"/>
        <path d="M52 16V14H50V16H46V14H44V16H42V14H38V16H36V14H32V16H30V18H28V20H32V18H54V16H52Z" fill="#DFB49C"/>
        <path d="M30 28V22H26V26H28V32H32V30H30V28Z" fill="#DFB49C"/>
        <path d="M64 26H62V28H64V26Z" fill="#F8D1B6"/>
        <path d="M50 18H32V20H34V22H36V20H40V22H42V20H44V22H46V20H50V22H52V20H54V18H50Z" fill="#F8D1B6"/>
        <path d="M52 26H50V28H46V26H44V22H42V26H40V28H36V26H34V22H30V30H32V32H36V34H52V32H54V22H52V26Z" fill="#F8D1B6"/>
        <path d="M38 22H36V24H38H40V22H38Z" fill="#74C3EC"/>
        <path d="M38 24H36V26H38H40V24H38Z" fill="#97D2E8"/>
        <path d="M48 22H46V24H48H50V22H48Z" fill="#74C3EC"/>
        <path d="M48 24H46V26H48H50V24H48Z" fill="#97D2E8"/>
        <path d="M64 24H56V16H58V12H56V14H52V16H54V20H52V22H54V24H52V22H50V26H54V28H52V30H54V32H56V30H64V28H56V26H64V28H66V24H64Z" fill="#33343D"/>
        <path d="M16 38H14V40H16V38Z" fill="#33343D"/>
        <path d="M12 36H8V34H10V32H0V40H2V38H14V36H12ZM2 36V34H6V36H2Z" fill="#33343D"/>
        <path d="M12 30V28H10V32H12V30Z" fill="#33343D"/>
        <path d="M8 26V24H14V22H0V30H2V28H10V26H8ZM2 26V24H6V26H2Z" fill="#33343D"/>
        <path d="M24 12H22V14H24V12Z" fill="#33343D"/>
        <path d="M26 8H24V10H26V8Z" fill="#33343D"/>
        <path d="M30 8H28V10H30V8Z" fill="#33343D"/>
        <path d="M34 8H36V6H30V8H34Z" fill="#33343D"/>
        <path d="M40 6H48V4H46V2H44V4H36V6H40Z" fill="#33343D"/>
        <path d="M50 8H54V6H48V8H50Z" fill="#33343D"/>
        <path d="M56 4H54V6H56V4Z" fill="#33343D"/>
        <path d="M54 12H56V8H54V12Z" fill="#33343D"/>
        <path d="M60 10H58V12H60V10Z" fill="#33343D"/>
        <path d="M60 16H58V18H60V16Z" fill="#33343D"/>
        <path d="M52 12H50V14H52V12Z" fill="#33343D"/>
        <path d="M48 16H50V14H46V16H48Z" fill="#33343D"/>
        <path d="M46 12H44V14H46V12Z" fill="#33343D"/>
        <path d="M44 14H42V16H44V14Z" fill="#33343D"/>
        <path d="M42 14V12H38V14H42Z" fill="#33343D"/>
        <path d="M38 14H36V16H38V14Z" fill="#33343D"/>
        <path d="M32 14H36V12H30V16H32V14Z" fill="#33343D"/>
        <path d="M48 20H46V22H50V20H48Z" fill="#33343D"/>
        <path d="M46 22H44V26H46V22Z" fill="#33343D"/>
        <path d="M46 26V28H50V26H46Z" fill="#33343D"/>
        <path d="M40 24V26H42V22H40V24Z" fill="#33343D"/>
        <path d="M44 20H42V22H44V20Z" fill="#33343D"/>
        <path d="M40 22V20H36V22H40Z" fill="#33343D"/>
        <path d="M36 22H34V26H36V22Z" fill="#33343D"/>
        <path d="M36 26V28H40V26H36Z" fill="#33343D"/>
        <path d="M54 32H52V34H54V32Z" fill="#33343D"/>
        <path d="M48 34V30H28V26H26V30H24V40H20V22H24V26H26V22H34V20H28V18H30V16H28V10H26V14H24V16H26V20H14V22H18V40H16V42H24V54H44V52H26V42H44V36H46V50H48V36H52V34H48ZM42 32V34H40V32H42ZM34 32V34H32V32H34ZM26 40V38H28V40H26ZM42 38V40H30V38H32V36H34V38H40V36H42V38ZM44 34V32H46V34H44Z" fill="#33343D"/>
        <path d="M36 2H34V4H36V2Z" fill="#33343D"/>
        <path d="M48 0H46V2H48V0Z" fill="#33343D"/>
        <path d="M32 0H30V2H34V0H32Z" fill="#33343D"/>
        <path d="M46 50H44V52H46V50Z" fill="#33343D"/>
        <path d="M40 44H28V46H44V44H40Z" fill="#33343D"/>
        <path d="M38 48H28V50H42V48H38Z" fill="#33343D"/>
        <path d="M40 36V38H38H36H34V36H32H30V38V40H32H34H36H38H40H42V38V36H40Z" fill="#97D2E8"/>
        <path d="M30 32V34V36H32H34V34V32H32H30Z" fill="#74C3EC"/>
        <path d="M40 32V34V36H42V34V32H40Z" fill="#74C3EC"/>
        <path d="M28 32H26V34H28V32Z" fill="#30AE7D"/>
        <path d="M28 34H26V36H28V34Z" fill="#30AE7D"/>
        <path d="M46 34H44V36H46V34Z" fill="#30AE7D"/>
        <path d="M46 32H44V34H46V32Z" fill="#30AE7D"/>
        <path d="M44 36V42H28V36H26V52H44V50H46V36H44ZM40 50H28V48H42V50H40ZM44 46H28V44H44V46Z" fill="#53B689"/>
    </symbol>

    <symbol id="cloud" viewBox="0 0 30 18">
        <path d="M20 4V10H22V8H26V10H28V16H2V10H4V8H8V4H20Z" fill="#C4E5EF"/>
        <path d="M18 0H10V2H18V0Z" fill="#33343D"/>
        <path d="M20 2H18V4H20V2Z" fill="#33343D"/>
        <path d="M20 10H22V8H26V6H22V4H20V10Z" fill="#33343D"/>
        <path d="M28 8H26V10H28V8Z" fill="#33343D"/>
        <path d="M30 10H28V16H30V10Z" fill="#33343D"/>
        <path d="M28 16H2V18H28V16Z" fill="#33343D"/>
        <path d="M2 10H0V16H2V10Z" fill="#33343D"/>
        <path d="M4 8H2V10H4V8Z" fill="#33343D"/>
        <path d="M8 8V4H6V6H4V8H8Z" fill="#33343D"/>
        <path d="M10 2H8V4H10V2Z" fill="#33343D"/>
        <path d="M10 8H8V10H10V8Z" fill="#33343D"/>
        <path d="M20 10H18V12H20V10Z" fill="#33343D"/>
        <path d="M18 2H10V4H18V2Z" fill="white"/>
        <path d="M8 8H4V10H8V8Z" fill="white"/>
        <path d="M26 8H22V10H26V8Z" fill="white"/>
        <path d="M22 10H20V12H22V10Z" fill="white"/>
        <path d="M10 4H8V6H10V4Z" fill="white"/>
        <path d="M4 10H2V12H4V10Z" fill="white"/>
    </symbol>

    <symbol id="pc" viewBox="0 0 48 44">
        <path d="M2 4H0V32H2V4Z" fill="#33343D"/>
        <path d="M48 4H46V32H48V4Z" fill="#33343D"/>
        <path d="M44 0H4V2H44V0Z" fill="#33343D"/>
        <path d="M4 36H16V38H14V40H34V38H32V36H44V34H4V36ZM30 36V38H18V36H30Z" fill="#33343D"/>
        <path d="M14 42V40H12V42V44H36V42V40H34V42H14Z" fill="#33343D"/>
        <path d="M46 2H44V4H46V2Z" fill="#33343D"/>
        <path d="M4 2H2V4H4V2Z" fill="#33343D"/>
        <path d="M26 28H22V32H26V28Z" fill="#33343D"/>
        <path d="M42 6H6V26H42V6Z" fill="#33343D"/>
        <path d="M4 32H2V34H4V32Z" fill="#33343D"/>
        <path d="M46 32H44V34H46V32Z" fill="#33343D"/>
        <path d="M24 8H22V9H21V10H20V11H19V12H18V13H17V14H16V15H15V16H14V17H13V18H12V19H11V20H10V21H9V22H8V24H10V23H11V22H12V21H13V20H14V19H15V18H16V17H17V16H18V15H19V14H20V13H21V12H22V11H23V10H24V8Z" fill="white"/>
        <path d="M31 8H29V9H28V10H27V11H26V12H25V13H24V14H23V15H22V16H21V17H20V18H19V19H18V20H17V21H16V22H15V24H17H19V23H20V22H21V21H22V20H23V19H24V18H25V17H26V16H27V15H28V14H29V13H30V12H31V11H32V10H33V8H31Z" fill="white"/>
    </symbol>

    <symbol id="ones" viewBox="0 0 56 28">
        <path d="M8 28H4V10H0V6H8V28Z" fill="#33343D"/>
        <path d="M14 28H10V4H4V0H14V28Z" fill="#33343D"/>
        <path d="M56 22V18H27.97V10H35.97V12H39.97V8H41.97V4H37.97V6H25.97L26 4H22L21.97 8H24L23.97 20H21.97L22 24H25.97V22H56Z" fill="#33343D"/>
        <path d="M22 8H18V20H22V8Z" fill="#33343D"/>
        <path d="M45.97 8H41.97V12H45.97V8Z" fill="#33343D"/>
        <path d="M37.97 0H25.97V4H37.97V0Z" fill="#33343D"/>
        <path d="M56 28V24H25.97L26 28H56Z" fill="#33343D"/>
    </symbol>

    <symbol id="server" viewBox="0 0 46 40">
        <path d="M42 4H4V14H42V4Z" fill="#33343D"/>
        <path d="M38 18H36V20H38V18Z" fill="#33343D"/>
        <path d="M34 18H32V20H34V18Z" fill="#33343D"/>
        <path d="M42 24H4V16H6V22H40V16H42V24Z" fill="#33343D"/>
        <path d="M24 18H8V20H24V18Z" fill="#33343D"/>
        <path d="M38 28H36V30H38V28Z" fill="#33343D"/>
        <path d="M34 28H32V30H34V28Z" fill="#33343D"/>
        <path d="M42 34H4V26H6V32H40V26H42V34Z" fill="#33343D"/>
        <path d="M24 28H8V30H24V28Z" fill="#33343D"/>
        <path d="M44 0H2V2H44V0Z" fill="#33343D"/>
        <path d="M2 2H0V38H2V2Z" fill="#33343D"/>
        <path d="M46 2H44V38H46V2Z" fill="#33343D"/>
        <path d="M44 38H2V40H44V38Z" fill="#33343D"/>
        <path d="M36 12V11H37V10H38V9H39V8H40V6H36V7H35V8H34V9H33V10H32V11H31V12H36Z" fill="white"/>
        <path d="M29 6V7H28V8H27V9H26V10H25V11H24V12H27V11H28V10H29V9H30V8H31V6H29Z" fill="white"/>
    </symbol>

    <symbol id="paper" viewBox="0 0 36 48">
        <path d="M27.41 0H0V48H36V8.59L27.41 0ZM28 3.41L32.59 8H28V3.41ZM2 46V2H26V10H34V46H2Z" fill="#33343D"/>
        <path d="M17.94 6H6V8H17.94V6Z" fill="#33343D"/>
        <path d="M23.94 6H20V8H23.94V6Z" fill="#33343D"/>
        <path d="M23.94 10H6V12H23.94V10Z" fill="#33343D"/>
        <path d="M11.94 20H6V22H11.94V20Z" fill="#33343D"/>
        <path d="M29.94 20H16V22H29.94V20Z" fill="#33343D"/>
        <path d="M11.94 24H6V26H11.94V24Z" fill="#33343D"/>
        <path d="M25.94 24H16V26H25.94V24Z" fill="#33343D"/>
        <path d="M11.94 28H6V30H11.94V28Z" fill="#33343D"/>
        <path d="M27.94 28H16V30H27.94V28Z" fill="#33343D"/>
        <path d="M11.94 32H6V34H11.94V32Z" fill="#33343D"/>
        <path d="M19.94 32H16V34H19.94V32Z" fill="#33343D"/>
        <path d="M11.94 36H6V38H11.94V36Z" fill="#33343D"/>
        <path d="M29.94 36H16V38H29.94V36Z" fill="#33343D"/>
        <path d="M11.94 40H6V42H11.94V40Z" fill="#33343D"/>
        <path d="M25.94 40H16V42H25.94V40Z" fill="#33343D"/>
    </symbol>

    <symbol id="close" viewBox="0 0 10 10">
        <path d="M7 4H8V3H9V2H10V0H8V1H7V2H6V3H5H4V2H3V1H2V0H0V2H1V3H2V4H3V5V6H2V7H1V8H0V10H2V9H3V8H4V7H5H6V8H7V9H8V10H10V8H9V7H8V6H7V5V4Z"/>
    </symbol>

    <symbol id="arrow" viewBox="0 0 16 10">
        <path d="M10 4H0V6H10V10H12V8H14V6H16V4H14V2H12V0H10V4Z" fill="#33343D"/>
    </symbol>

    <symbol id="check" viewBox="0 0 12 8">
        <path d="M12 0H10V1H9V2H8V3H7V4H6V5H5H4V4H3V3H2V2H0V4H1V5H2V6H3V7H4V8H6V7H7V6H8V5H9V4H10V3H11V2H12V0Z" fill="#33343D"/>
    </symbol>

    <symbol id="user" viewBox="0 0 18 24">
        <path d="M12 0H6V2H12V0Z" fill="#33343D"/>
        <path d="M4 4H2V12H4V4Z" fill="#33343D"/>
        <path d="M16 12V4H14V2H12V4H14V12H12V14H10V16H12H14V12H16Z" fill="#33343D"/>
        <path d="M6 2H4V4H6V2Z" fill="#33343D"/>
        <path d="M8 16V14H6V12H4V16H6H8Z" fill="#33343D"/>
        <path d="M4 16H2V18H4V16Z" fill="#33343D"/>
        <path d="M16 16H14V18H16V16Z" fill="#33343D"/>
        <path d="M16 18V22H2V18H0V24H1H2H16H18V22V18H16Z" fill="#33343D"/>
    </symbol>

    <symbol id="phone1" viewBox="0 0 16 24">
        <path d="M10 18H6V20H10V18Z" fill="#33343D"/>
        <path d="M2 2H14V0H2V2H0V22H2V24H14V22H2V2Z" fill="#33343D"/>
        <path d="M16 2H14V22H16V2Z" fill="#33343D"/>
        <path d="M4 16H12V4H4V16Z" fill="#33343D"/>
    </symbol>

    <symbol id="pencil" viewBox="0 0 22 18">
        <path d="M6 12H4V16H0V18H10V16H6V12Z" fill="#33343D"/>
        <path d="M12 14H10V16H12V14Z" fill="#33343D"/>
        <path d="M14 12H12V14H14V12Z" fill="#33343D"/>
        <path d="M8 10H6V12H8V10Z" fill="#33343D"/>
        <path d="M10 8H8V10H10V8Z" fill="#33343D"/>
        <path d="M12 6H10V8H12V6Z" fill="#33343D"/>
        <path d="M14 4H12V6H14V4Z" fill="#33343D"/>
        <path d="M16 2H14V4H16V2Z" fill="#33343D"/>
        <path d="M20 0H16V2H20V0Z" fill="#33343D"/>
        <path d="M18 4H16V6H18V4Z" fill="#33343D"/>
        <path d="M18 8H16V10H18V8Z" fill="#33343D"/>
        <path d="M20 6H18V8H20V6Z" fill="#33343D"/>
        <path d="M22 2H20V6H22V2Z" fill="#33343D"/>
        <path d="M16 10H14V12H16V10Z" fill="#33343D"/>
    </symbol>

    <symbol id="home" viewBox="0 0 22 20">
        <path d="M20 10V8H18V2H16V4H14V2H12V0H10V2H8V4H6V6H4V8H2V10H0V12H2V20H20V12H22V10H20ZM10 18V14H12V18H10ZM18 18H14V12H8V18H4V10H6V8H8V6H10V4H12V6H14V8H16V10H18V18Z" fill="#32343D"/>
    </symbol>

    <symbol id="phone2" viewBox="0 0 18 28">
        <path d="M13.97 22H9.97V24H13.97V22Z" fill="#32343D"/>
        <path d="M7.97 22H3.97V24H7.97V22Z" fill="#32343D"/>
        <path d="M13.97 18H9.97V20H13.97V18Z" fill="#32343D"/>
        <path d="M7.97 18H3.97V20H7.97V18Z" fill="#32343D"/>
        <path d="M14 8H4V16H14V8ZM12 14H6V10H12V14Z" fill="#32343D"/>
        <path d="M16 0V4H2V6H0V26H2V28H16V26H18V0H16ZM2 26V6H16V26H2Z" fill="#32343D"/>
    </symbol>

    <symbol id="mail" viewBox="0 0 22 16">
        <path d="M14 10H8V12H14V10Z" fill="#32343D"/>
        <path d="M8 8H6V10H8V8Z" fill="#32343D"/>
        <path d="M6 6H4V8H6V6Z" fill="#32343D"/>
        <path d="M16 8H14V10H16V8Z" fill="#32343D"/>
        <path d="M18 6H16V8H18V6Z" fill="#32343D"/>
        <path d="M0 0V16H22V0H0ZM2 14V6H4V4H2V2H20V4H18V6H20V14H2Z" fill="#32343D"/>
    </symbol>



    <symbol id="siluet" viewBox="0 0 21 21">
        <path d="M17 17H16V19H15V20H6V21H15V20H16V19H17V17H18V13H17V17Z" fill="#33343D"/>
        <path d="M19 11H18V13H19V11Z" fill="#33343D"/>
        <path d="M20 9H19V11H20V9Z" fill="#33343D"/>
        <path d="M21 7H20V9H21V7Z" fill="#33343D"/>
        <path d="M18 6V7H17V8H16V5H17V2H16V1H14V2H13V5H12V1H11V0H9V1H8V8H7V5H6V2H5V1H3V2H2V5H3V8H4V11H3V10H0V13H1V11H3V12H4V13H5V8H4V5H3V2H5V5H6V8H7V10H8V11H9V1H11V11H12V8H13V5H14V2H16V5H15V9H14V12H15V11H16V10H17V8H18V7H20V6H18ZM15 10V9H16V10H15Z" fill="#33343D"/>
        <path d="M2 13H1V14H2V13Z" fill="#33343D"/>
        <path d="M3 14H2V15H3V14Z" fill="#33343D"/>
        <path d="M4 15H3V17H4V15Z" fill="#33343D"/>
        <path d="M5 17H4V19H5V17Z" fill="#33343D"/>
        <path d="M6 19H5V20H6V19Z" fill="#33343D"/>

    </symbol>

</svg>

