<?xml version="1.0" standalone="no"?>
<!DOCTYPE svg PUBLIC "-//W3C//DTD SVG 20010904//EN"
 "http://www.w3.org/TR/2001/REC-SVG-20010904/DTD/svg10.dtd">
<svg version="1.0" xmlns="http://www.w3.org/2000/svg"
 width="187.000000pt" height="187.000000pt" viewBox="0 0 187.000000 187.000000"
 preserveAspectRatio="xMidYMid meet">
<metadata>
Created by potrace 1.14, written by Peter Selinger 2001-2017
</metadata>
<g transform="translate(0.000000,187.000000) scale(0.100000,-0.100000)"
fill="#000000" stroke="none">
<path d="M819 1866 c-2 -2 -22 -7 -44 -10 -233 -37 -464 -187 -602 -391 -116
-172 -165 -346 -158 -560 2 -66 6 -129 8 -140 24 -97 34 -130 62 -196 99 -237
293 -422 532 -509 47 -17 102 -33 122 -36 20 -3 39 -8 43 -11 12 -6 247 -5
293 2 308 48 586 266 705 552 72 173 72 173 74 731 1 276 -1 502 -4 502 -3 0
-49 -44 -102 -97 l-97 -98 -3 -405 c-4 -391 -5 -407 -27 -475 -80 -244 -255
-417 -496 -491 -94 -28 -296 -26 -395 4 -475 148 -667 712 -380 1120 88 126
212 218 362 268 100 34 133 37 526 38 l352 1 58 57 c31 31 77 77 102 102 l45
46 -486 0 c-268 0 -488 -2 -490 -4z"/>
<path d="M848 1568 c-253 -29 -469 -229 -533 -495 -17 -72 -12 -235 9 -308 82
-280 324 -465 607 -466 296 -1 550 203 620 499 12 50 20 700 8 707 -3 3 -50
-41 -104 -97 l-97 -101 -3 -231 c-2 -212 -3 -236 -24 -288 -27 -69 -82 -145
-136 -188 -195 -156 -479 -109 -615 102 -153 236 -44 549 225 643 41 14 90 18
272 19 l223 2 100 102 c55 56 99 103 97 103 -9 6 -596 3 -649 -3z"/>
<path d="M833 1260 c-159 -52 -256 -210 -231 -378 24 -159 169 -286 327 -285
132 1 253 78 311 198 22 46 25 64 28 234 3 148 1 182 -9 175 -7 -4 -47 -43
-88 -87 l-76 -79 -6 -80 c-9 -111 -52 -165 -140 -175 -169 -18 -237 204 -90
291 22 13 53 19 101 20 l70 1 84 84 c47 47 83 87 80 90 -3 4 -75 6 -159 7
-114 0 -165 -4 -202 -16z"/>
</g>
</svg>
